# Blender v2.77 (sub 0) OBJ File: ''
# www.blender.org
mtllib untitled.mtl
o mine_rock_tile
v 0.418314 4.539484 3.170368
v -0.046142 4.205733 1.627773
v 1.304695 4.446080 3.021924
v 2.423056 4.294847 2.973240
v 2.464864 4.067771 1.608882
v -0.517834 4.340916 -1.075559
v -0.912142 4.630724 -3.553021
v 0.228955 4.702352 -3.335953
v 0.237980 5.478536 -3.907069
v -0.723614 5.460556 -3.976611
v 1.904572 4.576483 -0.883840
v 1.115832 5.473290 -3.790665
v 1.572503 4.712328 -3.307741
v 1.945990 5.483492 -3.725121
v 3.329165 4.448405 -2.544817
v 4.525623 4.765471 3.621148
v 4.354073 4.201173 2.887754
v 4.992077 4.408085 2.894980
v 5.221529 4.771583 3.043636
v 3.494390 4.537362 3.506294
v 4.510975 4.273829 -1.671276
v 5.586897 4.691677 -1.482794
v 5.243449 4.522397 -2.231665
v 5.580747 5.450469 -2.123187
v 5.633063 5.466093 -1.566116
v 5.112375 5.462480 -2.527891
v 4.257605 4.457645 -0.434577
v 1.959911 4.579093 3.550790
v 3.193937 5.500315 3.606428
v 1.854433 5.489110 3.506782
v 0.302230 4.737549 3.605658
v 0.217625 5.481280 3.756622
v 5.234395 4.697039 -0.797962
v 5.529479 5.535079 -0.671054
v 5.443799 4.553795 0.319123
v 4.294935 4.156005 0.695002
v -1.528692 4.755053 -3.410101
v -1.538208 5.441884 -3.499517
v -1.616666 4.553678 -0.126195
v -1.634742 4.547329 -1.355156
v -2.074300 4.529647 0.980169
v -2.086576 5.453752 -0.122374
v -1.934206 5.458043 -1.767828
v -2.172600 5.456801 0.992669
v -2.131144 4.849827 2.267034
v -2.115302 5.497629 2.403944
v -1.781692 4.639345 -2.731877
v -1.958666 5.417863 -2.705855
v 5.036759 4.344637 1.938654
v 5.484281 5.514807 2.050842
v 5.468966 4.808839 2.014067
v 5.800213 4.688505 1.020485
v 5.921487 5.463587 1.122880
v 5.218617 5.508059 3.166516
v 3.681483 5.473318 -3.325917
v 3.632635 4.625421 -3.010659
v -1.557188 4.362111 2.162944
v 5.798185 5.454945 0.304323
v 4.395763 5.502688 3.813458
v 3.814099 4.002165 2.241600
v -0.945260 5.476866 3.718978
v -0.861942 4.663443 3.542392
v -1.502330 5.474891 3.391130
v -1.367386 4.644536 3.323758
v -0.992094 4.332511 2.721684
vt 0.8317 -0.4084
vt 0.7876 -0.2404
vt 0.9289 -0.4033
vt 1.0500 -0.3919
vt 1.0532 -0.2424
vt 0.7326 0.0503
vt 0.6909 0.3169
vt 0.8138 0.3058
vt 0.8135 0.4123
vt 0.6992 0.4167
vt 0.9935 0.0394
vt 0.9119 0.4014
vt 0.9607 0.2999
vt 1.0053 0.4000
vt 1.1478 0.2103
vt 1.2824 -0.4671
vt 1.2576 -0.3785
vt 1.3219 -0.3776
vt 1.3588 -0.4048
vt 1.1676 -0.4571
vt 1.2713 0.1137
vt 1.3950 0.1043
vt 1.3478 0.1756
vt 1.4495 0.2041
vt 1.4717 0.1311
vt 1.3946 0.2760
vt 1.2529 -0.0195
vt 1.0010 -0.4643
vt 1.1431 -0.5775
vt 0.9822 -0.5685
vt 0.8144 -0.4665
vt 0.7938 -0.5571
vt 1.3705 0.0239
vt 1.4810 0.0210
vt 1.3662 -0.1254
vt 1.2531 -0.1427
vt 0.6261 0.3022
vt 0.5796 0.3547
vt 0.6059 -0.0520
vt 0.6092 0.0830
vt 0.5702 -0.1850
vt 0.4844 -0.0450
vt 0.4975 0.1385
vt 0.4748 -0.1852
vt 0.5406 -0.3209
vt 0.4808 -0.3593
vt 0.6228 0.2278
vt 0.5170 0.2510
vt 1.3353 -0.2790
vt 1.4756 -0.3261
vt 1.4044 -0.2957
vt 1.4231 -0.1811
vt 1.5037 -0.2019
vt 1.4142 -0.4618
vt 1.2094 0.3627
vt 1.1845 0.2692
vt 0.6152 -0.2953
vt 1.4953 -0.0949
vt 1.2951 -0.5490
vt 1.1971 -0.3118
vt 0.6371 -0.5210
vt 0.6923 -0.4290
vt 0.5720 -0.4715
vt 0.6458 -0.4035
vt 0.6852 -0.3459
vn 0.0187 -0.9133 0.4067
vn 0.0142 -0.9997 -0.0220
vn -0.1132 -0.9228 0.3682
vn -0.1155 -0.9572 0.2655
vn -0.1609 -0.9862 0.0396
vn 0.0162 -0.9993 -0.0331
vn 0.0609 -0.9519 -0.3002
vn 0.0972 -0.9593 -0.2651
vn 0.1210 -0.4502 -0.8847
vn 0.0063 -0.3752 -0.9269
vn 0.0017 -0.9993 -0.0364
vn 0.0763 -0.4712 -0.8787
vn 0.0155 -0.5314 -0.8470
vn 0.0736 -0.3930 -0.9166
vn 0.0134 -0.9997 -0.0197
vn 0.5671 -0.2767 0.7758
vn 0.1476 -0.9073 0.3938
vn 0.5853 -0.7282 0.3565
vn 0.8502 -0.2849 0.4428
vn 0.0166 -0.8614 0.5076
vn 0.0056 -0.9997 -0.0250
vn 0.9236 -0.3627 0.1240
vn 0.8315 -0.2781 -0.4808
vn 0.8694 -0.1031 -0.4832
vn 0.9954 -0.0892 0.0349
vn 0.5617 -0.1433 -0.8148
vn 0.1326 -0.9633 -0.2335
vn -0.1137 -0.2517 0.9611
vn -0.0457 0.1265 0.9909
vn -0.1327 0.1757 0.9755
vn 0.1164 -0.3166 0.9414
vn 0.1424 -0.0342 0.9892
vn 0.8780 -0.4712 0.0841
vn 0.9909 -0.1337 0.0141
vn 0.7778 -0.5628 -0.2800
vn 0.1800 -0.9487 -0.2597
vn -0.8322 -0.2563 -0.4917
vn -0.5440 -0.1774 -0.8201
vn -0.2928 -0.9555 -0.0364
vn -0.8562 -0.5164 -0.0156
vn -0.5256 -0.8490 -0.0550
vn -0.9545 -0.2429 -0.1730
vn -0.9841 -0.1776 -0.0046
vn -0.9995 0.0054 0.0315
vn -0.9342 -0.1800 0.3079
vn -0.9436 -0.0317 0.3296
vn -0.8643 -0.4995 -0.0589
vn -0.9884 -0.1311 -0.0769
vn 0.7375 -0.6650 0.1177
vn 0.9367 -0.0641 0.3441
vn 0.8947 -0.2986 0.3321
vn 0.9180 -0.3580 0.1708
vn 0.9613 -0.1600 0.2244
vn 0.8804 -0.0582 0.4707
vn 0.2011 -0.3329 -0.9213
vn 0.2303 -0.4229 -0.8764
vn -0.2407 -0.9690 0.0561
vn 0.9366 -0.1722 -0.3052
vn -0.0465 -0.0291 0.9985
vn 0.1212 -0.9857 0.1168
vn -0.1756 0.0258 0.9841
vn -0.1742 -0.2275 0.9581
vn -0.7688 -0.0101 0.6394
vn -0.7326 -0.2038 0.6494
vn 0.0530 -0.9846 0.1665
usemtl mine_rock_tile
s 1
f 1/1/1 2/2/2 3/3/3
f 4/4/4 3/3/3 5/5/5
f 6/6/6 7/7/7 8/8/8
f 9/9/9 8/8/8 7/7/7
f 10/10/10 9/9/9 7/7/7
f 6/6/6 8/8/8 11/11/11
f 12/12/12 13/13/13 8/8/8
f 9/9/9 12/12/12 8/8/8
f 13/13/13 12/12/12 14/14/14
f 13/13/13 11/11/11 8/8/8
f 13/13/13 15/15/15 11/11/11
f 16/16/16 17/17/17 18/18/18
f 18/18/18 19/19/19 16/16/16
f 20/20/20 17/17/17 16/16/16
f 15/15/15 21/21/21 11/11/11
f 22/22/22 23/23/23 24/24/24
f 25/25/25 22/22/22 24/24/24
f 23/23/23 26/26/26 24/24/24
f 21/21/21 27/27/27 11/11/11
f 3/3/3 4/4/4 28/28/28
f 20/20/20 29/29/29 30/30/30
f 28/28/28 20/20/20 30/30/30
f 31/31/31 28/28/28 30/30/30
f 32/32/32 31/31/31 30/30/30
f 33/33/33 22/22/22 25/25/25
f 34/34/34 33/33/33 25/25/25
f 22/22/22 21/21/21 23/23/23
f 21/21/21 22/22/22 33/33/33
f 33/33/33 27/27/27 21/21/21
f 35/35/35 27/27/27 33/33/33
f 27/27/27 35/35/35 36/36/36
f 7/7/7 37/37/37 38/38/38
f 10/10/10 7/7/7 38/38/38
f 39/39/39 40/40/40 6/6/6
f 2/2/2 41/41/41 39/39/39
f 2/2/2 39/39/39 6/6/6
f 2/2/2 6/6/6 11/11/11
f 40/40/40 39/39/39 42/42/42
f 43/43/43 40/40/40 42/42/42
f 41/41/41 44/44/44 42/42/42
f 39/39/39 41/41/41 42/42/42
f 45/45/45 46/46/46 44/44/44
f 41/41/41 45/45/45 44/44/44
f 6/6/6 47/47/47 7/7/7
f 47/47/47 48/48/48 38/38/38
f 37/37/37 47/47/47 38/38/38
f 47/47/47 37/37/37 7/7/7
f 40/40/40 47/47/47 6/6/6
f 48/48/48 47/47/47 40/40/40
f 43/43/43 48/48/48 40/40/40
f 5/5/5 3/3/3 2/2/2
f 2/2/2 11/11/11 5/5/5
f 17/17/17 49/49/49 18/18/18
f 50/50/50 51/51/51 52/52/52
f 53/53/53 50/50/50 52/52/52
f 19/19/19 51/51/51 50/50/50
f 54/54/54 19/19/19 50/50/50
f 51/51/51 19/19/19 18/18/18
f 49/49/49 51/51/51 18/18/18
f 13/13/13 14/14/14 55/55/55
f 56/56/56 13/13/13 55/55/55
f 15/15/15 13/13/13 56/56/56
f 56/56/56 21/21/21 15/15/15
f 23/23/23 56/56/56 55/55/55
f 26/26/26 23/23/23 55/55/55
f 56/56/56 23/23/23 21/21/21
f 2/2/2 57/57/57 41/41/41
f 57/57/57 45/45/45 41/41/41
f 35/35/35 33/33/33 34/34/34
f 58/58/58 35/35/35 34/34/34
f 53/53/53 52/52/52 35/35/35
f 58/58/58 53/53/53 35/35/35
f 51/51/51 49/49/49 52/52/52
f 49/49/49 35/35/35 52/52/52
f 59/59/59 16/16/16 19/19/19
f 54/54/54 59/59/59 19/19/19
f 16/16/16 59/59/59 29/29/29
f 20/20/20 16/16/16 29/29/29
f 60/60/60 4/4/4 5/5/5
f 60/60/60 17/17/17 20/20/20
f 49/49/49 17/17/17 60/60/60
f 36/36/36 60/60/60 5/5/5
f 36/36/36 49/49/49 60/60/60
f 36/36/36 35/35/35 49/49/49
f 36/36/36 11/11/11 27/27/27
f 36/36/36 5/5/5 11/11/11
f 61/61/61 62/62/62 31/31/31
f 32/32/32 61/61/61 31/31/31
f 61/61/61 63/63/63 64/64/64
f 62/62/62 61/61/61 64/64/64
f 46/46/46 45/45/45 64/64/64
f 63/63/63 46/46/46 64/64/64
f 62/62/62 1/1/1 31/31/31
f 65/65/65 2/2/2 1/1/1
f 57/57/57 65/65/65 64/64/64
f 65/65/65 57/57/57 2/2/2
f 64/64/64 45/45/45 57/57/57
f 62/62/62 65/65/65 1/1/1
f 62/62/62 64/64/64 65/65/65
f 28/28/28 4/4/4 20/20/20
f 4/4/4 60/60/60 20/20/20
f 28/28/28 31/31/31 3/3/3
f 31/31/31 1/1/1 3/3/3
